<svg xmlns="http://www.w3.org/2000/svg" viewBox="0 0 540 560" font-family="-apple-system,BlinkMacSystemFont,Segoe UI,Roboto,Helvetica,Arial,sans-serif">
  <rect width="540" height="560" rx="16" fill="#161d2b"/>
  <text x="28" y="38" font-size="19" font-weight="800" fill="#f4f6fb">Probability calibration</text>
  <text x="28" y="58" font-size="12.5" fill="#9aa7bd">All played matches · predicted W/D/A probability vs actual frequency</text>
  <line x1="70" y1="90" x2="70" y2="490" stroke="#2a3446" stroke-width="1"/><line x1="70" y1="490" x2="470" y2="490" stroke="#2a3446" stroke-width="1"/><text x="70" y="510" text-anchor="middle" font-size="11" fill="#9aa7bd">0%</text><text x="60" y="494" text-anchor="end" font-size="11" fill="#9aa7bd">0%</text><line x1="170.0" y1="90" x2="170.0" y2="490" stroke="#2a3446" stroke-width="1"/><line x1="70" y1="390.0" x2="470" y2="390.0" stroke="#2a3446" stroke-width="1"/><text x="170.0" y="510" text-anchor="middle" font-size="11" fill="#9aa7bd">25%</text><text x="60" y="394.0" text-anchor="end" font-size="11" fill="#9aa7bd">25%</text><line x1="270.0" y1="90" x2="270.0" y2="490" stroke="#2a3446" stroke-width="1"/><line x1="70" y1="290.0" x2="470" y2="290.0" stroke="#2a3446" stroke-width="1"/><text x="270.0" y="510" text-anchor="middle" font-size="11" fill="#9aa7bd">50%</text><text x="60" y="294.0" text-anchor="end" font-size="11" fill="#9aa7bd">50%</text><line x1="370.0" y1="90" x2="370.0" y2="490" stroke="#2a3446" stroke-width="1"/><line x1="70" y1="190.0" x2="470" y2="190.0" stroke="#2a3446" stroke-width="1"/><text x="370.0" y="510" text-anchor="middle" font-size="11" fill="#9aa7bd">75%</text><text x="60" y="194.0" text-anchor="end" font-size="11" fill="#9aa7bd">75%</text><line x1="470" y1="90" x2="470" y2="490" stroke="#2a3446" stroke-width="1"/><line x1="70" y1="90" x2="470" y2="90" stroke="#2a3446" stroke-width="1"/><text x="470" y="510" text-anchor="middle" font-size="11" fill="#9aa7bd">100%</text><text x="60" y="94" text-anchor="end" font-size="11" fill="#9aa7bd">100%</text>
  <line x1="70" y1="490" x2="470" y2="90" stroke="#5f6b80" stroke-dasharray="5 5" stroke-width="1.5"/>
  <text x="464" y="106" text-anchor="end" font-size="11" fill="#5f6b80">perfect calibration</text>
  <polyline points="102.0,490.0 135.8,432.9 170.4,401.1 203.6,385.2 248.4,250.0 291.0,213.1 331.9,178.9 369.1,290.0" fill="none" stroke="#2ecc71" stroke-width="2" stroke-opacity="0.5"/>
  <circle cx="102.0" cy="490.0" r="6.4" fill="#2ecc71" fill-opacity="0.85" stroke="#0e1117"/><circle cx="135.8" cy="432.9" r="9.9" fill="#2ecc71" fill-opacity="0.85" stroke="#0e1117"/><circle cx="170.4" cy="401.1" r="12.5" fill="#2ecc71" fill-opacity="0.85" stroke="#0e1117"/><circle cx="203.6" cy="385.2" r="10.5" fill="#2ecc71" fill-opacity="0.85" stroke="#0e1117"/><circle cx="248.4" cy="250.0" r="8.5" fill="#2ecc71" fill-opacity="0.85" stroke="#0e1117"/><circle cx="291.0" cy="213.1" r="9.1" fill="#2ecc71" fill-opacity="0.85" stroke="#0e1117"/><circle cx="331.9" cy="178.9" r="7.0" fill="#2ecc71" fill-opacity="0.85" stroke="#0e1117"/><circle cx="369.1" cy="290.0" r="6.4" fill="#2ecc71" fill-opacity="0.85" stroke="#0e1117"/>
  <text x="270" y="540" text-anchor="middle" font-size="12" fill="#9aa7bd">Model predicted probability  →  (dot size = sample size)</text>
  <text x="20" y="300" text-anchor="middle" font-size="12" fill="#9aa7bd" transform="rotate(-90 20 300)">Actual frequency</text>
</svg>