<svg xmlns="http://www.w3.org/2000/svg" viewBox="0 0 760 400" font-family="-apple-system,BlinkMacSystemFont,Segoe UI,Roboto,Helvetica,Arial,sans-serif">
  <rect width="760" height="400" rx="16" fill="#161d2b"/>
  <text x="28" y="38" font-size="20" font-weight="800" fill="#f4f6fb">World Cup 2026 — title odds</text>
  <text x="28" y="59" font-size="13" fill="#9aa7bd">50,000 Monte-Carlo runs of the real knockout bracket · ELO + group form</text>
  <text x="222" y="85" text-anchor="end" font-size="13.5" font-weight="600" fill="#cdd6e6">🇪🇸 Spain</text><rect x="230" y="73" width="470.0" height="18" rx="4" fill="#2ecc71"/><text x="708.0" y="86" font-size="12.5" font-weight="700" fill="#9aa7bd">27.8%</text><text x="222" y="115" text-anchor="end" font-size="13.5" font-weight="600" fill="#cdd6e6">🇦🇷 Argentina</text><rect x="230" y="103" width="440.4" height="18" rx="4" fill="#27a35a"/><text x="678.4" y="116" font-size="12.5" font-weight="700" fill="#9aa7bd">26.0%</text><text x="222" y="145" text-anchor="end" font-size="13.5" font-weight="600" fill="#cdd6e6">🇫🇷 France</text><rect x="230" y="133" width="270.0" height="18" rx="4" fill="#27a35a"/><text x="508.0" y="146" font-size="12.5" font-weight="700" fill="#9aa7bd">16.0%</text><text x="222" y="175" text-anchor="end" font-size="13.5" font-weight="600" fill="#cdd6e6">🏴󠁧󠁢󠁥󠁮󠁧󠁿 England</text><rect x="230" y="163" width="122.6" height="18" rx="4" fill="#3a5a78"/><text x="360.6" y="176" font-size="12.5" font-weight="700" fill="#9aa7bd">7.2%</text><text x="222" y="205" text-anchor="end" font-size="13.5" font-weight="600" fill="#cdd6e6">🇨🇴 Colombia</text><rect x="230" y="193" width="78.5" height="18" rx="4" fill="#3a5a78"/><text x="316.5" y="206" font-size="12.5" font-weight="700" fill="#9aa7bd">4.6%</text><text x="222" y="235" text-anchor="end" font-size="13.5" font-weight="600" fill="#cdd6e6">🇧🇷 Brazil</text><rect x="230" y="223" width="59.7" height="18" rx="4" fill="#3a5a78"/><text x="297.7" y="236" font-size="12.5" font-weight="700" fill="#9aa7bd">3.5%</text><text x="222" y="265" text-anchor="end" font-size="13.5" font-weight="600" fill="#cdd6e6">🇳🇱 Netherlands</text><rect x="230" y="253" width="57.4" height="18" rx="4" fill="#3a5a78"/><text x="295.4" y="266" font-size="12.5" font-weight="700" fill="#9aa7bd">3.4%</text><text x="222" y="295" text-anchor="end" font-size="13.5" font-weight="600" fill="#cdd6e6">🇵🇹 Portugal</text><rect x="230" y="283" width="37.1" height="18" rx="4" fill="#3a5a78"/><text x="275.1" y="296" font-size="12.5" font-weight="700" fill="#9aa7bd">2.2%</text><text x="222" y="325" text-anchor="end" font-size="13.5" font-weight="600" fill="#cdd6e6">🇩🇪 Germany</text><rect x="230" y="313" width="22.1" height="18" rx="4" fill="#3a5a78"/><text x="260.1" y="326" font-size="12.5" font-weight="700" fill="#9aa7bd">1.3%</text><text x="222" y="355" text-anchor="end" font-size="13.5" font-weight="600" fill="#cdd6e6">🇳🇴 Norway</text><rect x="230" y="343" width="20.6" height="18" rx="4" fill="#3a5a78"/><text x="258.6" y="356" font-size="12.5" font-weight="700" fill="#9aa7bd">1.2%</text>
</svg>